STARTFONT 2.1
COMMENT
COMMENT Converted from OpenType font "Q:\font stuff\winfont\Nanosecond Thin BRK.ttf" by "otf2bdf 3.0".
COMMENT
FONT -FreeType-Nanosecond Thin BRK-Medium-R-Normal--31-310-72-72-P-105-ISO10646-1
SIZE 31 72 72
FONTBOUNDINGBOX 22 31 0 -5
STARTPROPERTIES 19
FOUNDRY "FreeType"
FAMILY_NAME "Nanosecond Thin BRK"
WEIGHT_NAME "Medium"
SLANT "R"
SETWIDTH_NAME "Normal"
ADD_STYLE_NAME ""
PIXEL_SIZE 31
POINT_SIZE 310
RESOLUTION_X 72
RESOLUTION_Y 72
SPACING "P"
AVERAGE_WIDTH 105
CHARSET_REGISTRY "ISO10646"
CHARSET_ENCODING "1"
FONT_ASCENT 26
FONT_DESCENT 4
COPYRIGHT "ÆNIGMA FONTS   [e-mail]  kentpw@norwich.net"
_OTF_FONTFILE "Q:\font stuff\winfont\Nanosecond Thin BRK.ttf"
_OTF_PSNAME "NanosecondThinBRK"
ENDPROPERTIES
CHARS 99
STARTCHAR 0020
ENCODING 32
SWIDTH 419 0
DWIDTH 13 0
BBX 0 0 0 0
BITMAP
ENDCHAR
STARTCHAR 0021
ENCODING 33
SWIDTH 96 0
DWIDTH 3 0
BBX 2 21 1 0
BITMAP
C0
C0
C0
C0
C0
C0
C0
C0
C0
C0
C0
C0
C0
C0
C0
C0
00
00
00
00
C0
ENDCHAR
STARTCHAR 0022
ENCODING 34
SWIDTH 258 0
DWIDTH 8 0
BBX 6 6 1 14
BITMAP
CC
CC
CC
CC
CC
CC
ENDCHAR
STARTCHAR 0023
ENCODING 35
SWIDTH 483 0
DWIDTH 15 0
BBX 13 21 1 0
BITMAP
18C0
18C0
18C0
18C0
FFF8
FFF8
18C0
18C0
18C0
18C0
18C0
18C0
18C0
18C0
FFF8
FFF8
18C0
18C0
18C0
18C0
18C0
ENDCHAR
STARTCHAR 0024
ENCODING 36
SWIDTH 419 0
DWIDTH 13 0
BBX 11 31 1 -5
BITMAP
0C00
0C00
0C00
0C00
0C00
1F00
3B80
60C0
E0E0
C060
C060
C060
C000
E000
7000
3F00
1F80
01C0
00E0
0060
C060
C060
C060
60C0
7180
3F00
0C00
0C00
0C00
0C00
0C00
ENDCHAR
STARTCHAR 0025
ENCODING 37
SWIDTH 419 0
DWIDTH 13 0
BBX 11 21 1 0
BITMAP
7860
FC60
CC60
CCC0
FCC0
79C0
0180
0300
0300
0600
0E00
0C00
1800
1800
3380
77C0
6C60
6C60
CC60
C7C0
C380
ENDCHAR
STARTCHAR 0026
ENCODING 38
SWIDTH 419 0
DWIDTH 13 0
BBX 11 31 1 -5
BITMAP
0C00
0C00
0C00
0C00
0C00
3F00
7B80
60C0
E0E0
C060
C060
C060
C000
6000
7000
1C00
7C00
7000
E000
C000
C060
C060
C060
60C0
71C0
3F00
0C00
0C00
0C00
0C00
0C00
ENDCHAR
STARTCHAR 0027
ENCODING 39
SWIDTH 96 0
DWIDTH 3 0
BBX 2 6 1 15
BITMAP
C0
C0
C0
C0
C0
C0
ENDCHAR
STARTCHAR 0028
ENCODING 40
SWIDTH 258 0
DWIDTH 8 0
BBX 7 21 1 0
BITMAP
0E
3E
70
E0
C0
C0
C0
C0
C0
C0
C0
C0
C0
C0
C0
C0
C0
E0
70
3E
1E
ENDCHAR
STARTCHAR 0029
ENCODING 41
SWIDTH 258 0
DWIDTH 8 0
BBX 7 21 0 0
BITMAP
E0
F8
1C
0E
06
06
06
06
06
06
06
06
06
06
06
06
06
0E
1C
F8
F0
ENDCHAR
STARTCHAR 002A
ENCODING 42
SWIDTH 419 0
DWIDTH 13 0
BBX 12 10 0 10
BITMAP
0600
0600
0600
4620
FFF0
3F80
0F00
1F80
1980
30C0
ENDCHAR
STARTCHAR 002B
ENCODING 43
SWIDTH 419 0
DWIDTH 13 0
BBX 12 11 0 5
BITMAP
0600
0600
0600
0600
0600
FFF0
FFF0
0600
0600
0600
0600
ENDCHAR
STARTCHAR 002C
ENCODING 44
SWIDTH 96 0
DWIDTH 3 0
BBX 2 7 1 -5
BITMAP
C0
C0
C0
C0
C0
C0
C0
ENDCHAR
STARTCHAR 002D
ENCODING 45
SWIDTH 419 0
DWIDTH 13 0
BBX 11 2 1 9
BITMAP
FFE0
FFE0
ENDCHAR
STARTCHAR 002E
ENCODING 46
SWIDTH 96 0
DWIDTH 3 0
BBX 1 2 1 0
BITMAP
80
80
ENDCHAR
STARTCHAR 002F
ENCODING 47
SWIDTH 419 0
DWIDTH 13 0
BBX 11 21 1 0
BITMAP
0020
0060
0060
0060
00C0
00C0
0180
0100
0300
0600
0400
0C00
1800
1800
3000
6000
6000
C000
C000
8000
8000
ENDCHAR
STARTCHAR 0030
ENCODING 48
SWIDTH 419 0
DWIDTH 13 0
BBX 11 21 1 0
BITMAP
1F00
3F80
71C0
E0E0
C060
C060
C060
C060
C060
C060
C060
C060
C060
C060
C060
C060
C060
E0E0
71C0
3F80
1F00
ENDCHAR
STARTCHAR 0031
ENCODING 49
SWIDTH 96 0
DWIDTH 3 0
BBX 2 21 1 0
BITMAP
C0
C0
C0
C0
C0
C0
C0
C0
C0
C0
C0
C0
C0
C0
C0
C0
C0
C0
C0
C0
C0
ENDCHAR
STARTCHAR 0032
ENCODING 50
SWIDTH 419 0
DWIDTH 13 0
BBX 11 21 1 0
BITMAP
1F00
3F80
71C0
60E0
C060
C060
C060
0060
00E0
01C0
1F80
7F00
7000
E000
C000
C000
C000
C000
C000
FFE0
7FE0
ENDCHAR
STARTCHAR 0033
ENCODING 51
SWIDTH 419 0
DWIDTH 13 0
BBX 11 21 1 0
BITMAP
1F00
3F80
71C0
60E0
C060
C060
C060
0060
00C0
01C0
0F00
0FC0
01C0
00E0
C060
C060
C060
E060
70C0
3F80
1F00
ENDCHAR
STARTCHAR 0034
ENCODING 52
SWIDTH 419 0
DWIDTH 13 0
BBX 11 21 1 0
BITMAP
C060
C060
C060
C060
C060
C060
C060
C060
C060
C060
FFC0
7FE0
0060
0060
0060
0060
0060
0060
0060
0060
0060
ENDCHAR
STARTCHAR 0035
ENCODING 53
SWIDTH 419 0
DWIDTH 13 0
BBX 11 21 1 0
BITMAP
7FE0
FFE0
C000
C000
C000
C000
C000
C000
C000
C000
FF00
7F80
01C0
00E0
0060
0060
0060
00E0
01C0
FF80
FF00
ENDCHAR
STARTCHAR 0036
ENCODING 54
SWIDTH 419 0
DWIDTH 13 0
BBX 11 21 1 0
BITMAP
1F00
3F80
71C0
E0C0
C060
C060
C060
C000
C000
C000
7F00
FF80
C1C0
C0E0
C060
C060
C060
C060
70C0
3F80
1F00
ENDCHAR
STARTCHAR 0037
ENCODING 55
SWIDTH 419 0
DWIDTH 13 0
BBX 11 21 1 0
BITMAP
FFC0
FFE0
0020
0060
0060
0040
0040
00C0
00C0
0080
0180
0180
0100
0300
0300
0300
0200
0600
0600
0400
0400
ENDCHAR
STARTCHAR 0038
ENCODING 56
SWIDTH 419 0
DWIDTH 13 0
BBX 11 21 1 0
BITMAP
1F00
3F80
71C0
E0E0
C060
C060
C060
C060
60C0
71C0
1F00
7FC0
71C0
E0E0
C060
C060
C060
C060
70C0
3F80
1F00
ENDCHAR
STARTCHAR 0039
ENCODING 57
SWIDTH 419 0
DWIDTH 13 0
BBX 11 21 1 0
BITMAP
1F00
3F80
71C0
E0E0
C060
C060
C060
C060
E060
7060
3FC0
1FE0
0060
0060
0060
0060
0060
0060
0060
0060
0060
ENDCHAR
STARTCHAR 003A
ENCODING 58
SWIDTH 96 0
DWIDTH 3 0
BBX 2 16 1 0
BITMAP
C0
00
00
00
00
00
00
00
00
00
00
00
00
00
00
C0
ENDCHAR
STARTCHAR 003B
ENCODING 59
SWIDTH 96 0
DWIDTH 3 0
BBX 2 21 1 -5
BITMAP
C0
00
00
00
00
00
00
00
00
00
00
00
00
00
00
C0
C0
C0
C0
C0
C0
ENDCHAR
STARTCHAR 003C
ENCODING 60
SWIDTH 419 0
DWIDTH 13 0
BBX 11 12 1 5
BITMAP
00E0
03E0
0700
1C00
3000
6000
E000
7000
3C00
0F00
07E0
01E0
ENDCHAR
STARTCHAR 003D
ENCODING 61
SWIDTH 419 0
DWIDTH 13 0
BBX 11 9 1 6
BITMAP
FFE0
FFE0
0000
0000
0000
0000
0000
FFE0
FFE0
ENDCHAR
STARTCHAR 003E
ENCODING 62
SWIDTH 419 0
DWIDTH 13 0
BBX 11 12 1 5
BITMAP
E000
F800
1C00
0700
0380
00C0
00E0
01C0
0780
1E00
FC00
F000
ENDCHAR
STARTCHAR 003F
ENCODING 63
SWIDTH 419 0
DWIDTH 13 0
BBX 11 21 1 0
BITMAP
1F00
3F80
71C0
60C0
C060
C060
C060
0060
00C0
01C0
0780
0E00
0C00
0C00
0C00
0C00
0C00
0000
0000
0000
0C00
ENDCHAR
STARTCHAR 0040
ENCODING 64
SWIDTH 741 0
DWIDTH 23 0
BBX 21 21 1 0
BITMAP
1FFFC0
3FFFE0
700070
E00038
C07C18
C07E18
C00718
C00318
C00318
C00318
C7FF18
CFFF18
CC0318
CE0318
C7FFF8
C3FFF0
C00000
E00000
700000
3FFF00
1FFF00
ENDCHAR
STARTCHAR 0041
ENCODING 65
SWIDTH 419 0
DWIDTH 13 0
BBX 11 21 1 0
BITMAP
1F00
3F80
71C0
E0E0
C060
C060
C060
C060
C060
C060
7FC0
FFE0
C060
C060
C060
C060
C060
C060
C060
C060
C060
ENDCHAR
STARTCHAR 0042
ENCODING 66
SWIDTH 419 0
DWIDTH 13 0
BBX 11 21 1 0
BITMAP
7F00
FF80
C1C0
C0E0
C060
C060
C060
C060
C0C0
C1C0
7F00
FFC0
C1C0
C0E0
C060
C060
C060
C060
C0C0
FF80
7F00
ENDCHAR
STARTCHAR 0043
ENCODING 67
SWIDTH 419 0
DWIDTH 13 0
BBX 11 21 1 0
BITMAP
1F00
3F80
71C0
E0C0
C060
C060
C060
C000
C000
C000
C000
C000
C000
C000
C060
C060
C060
E0C0
71C0
3F80
1F00
ENDCHAR
STARTCHAR 0044
ENCODING 68
SWIDTH 419 0
DWIDTH 13 0
BBX 11 21 1 0
BITMAP
7F00
FF80
C1C0
C0E0
C060
C060
C060
C060
C060
C060
C060
C060
C060
C060
C060
C060
C060
C0E0
C1C0
FF80
7F00
ENDCHAR
STARTCHAR 0045
ENCODING 69
SWIDTH 419 0
DWIDTH 13 0
BBX 12 21 1 0
BITMAP
7FF0
FFF0
C000
C000
C000
C000
C000
C000
C000
C000
7E00
FE00
C000
C000
C000
C000
C000
C000
C000
FFF0
7FF0
ENDCHAR
STARTCHAR 0046
ENCODING 70
SWIDTH 419 0
DWIDTH 13 0
BBX 12 21 1 0
BITMAP
7FF0
FFF0
C000
C000
C000
C000
C000
C000
C000
C000
7E00
FE00
C000
C000
C000
C000
C000
C000
C000
C000
C000
ENDCHAR
STARTCHAR 0047
ENCODING 71
SWIDTH 419 0
DWIDTH 13 0
BBX 11 21 1 0
BITMAP
1F00
3F80
71C0
E0C0
C060
C060
C060
C000
C000
C000
CFC0
CFE0
C060
C060
C060
C060
C060
E060
7060
3FE0
1FC0
ENDCHAR
STARTCHAR 0048
ENCODING 72
SWIDTH 419 0
DWIDTH 13 0
BBX 11 21 1 0
BITMAP
C060
C060
C060
C060
C060
C060
C060
C060
C060
C060
7FC0
FFE0
C060
C060
C060
C060
C060
C060
C060
C060
C060
ENDCHAR
STARTCHAR 0049
ENCODING 73
SWIDTH 419 0
DWIDTH 13 0
BBX 12 21 0 0
BITMAP
FFF0
FFF0
0600
0600
0600
0600
0600
0600
0600
0600
0600
0600
0600
0600
0600
0600
0600
0600
0600
FFF0
FFF0
ENDCHAR
STARTCHAR 004A
ENCODING 74
SWIDTH 419 0
DWIDTH 13 0
BBX 12 21 0 0
BITMAP
0030
0030
0030
0030
0030
0030
0030
0030
0030
0030
0030
0030
0030
0030
C030
C030
C030
6070
70E0
3FC0
0F80
ENDCHAR
STARTCHAR 004B
ENCODING 75
SWIDTH 419 0
DWIDTH 13 0
BBX 11 21 1 0
BITMAP
C060
C060
C060
C060
C060
C060
C060
C060
C0C0
C1C0
7F00
FFC0
C1C0
C0E0
C060
C060
C060
C060
C060
C060
C060
ENDCHAR
STARTCHAR 004C
ENCODING 76
SWIDTH 419 0
DWIDTH 13 0
BBX 12 21 1 0
BITMAP
C000
C000
C000
C000
C000
C000
C000
C000
C000
C000
C000
C000
C000
C000
C000
C000
C000
C000
C000
FFF0
7FF0
ENDCHAR
STARTCHAR 004D
ENCODING 77
SWIDTH 645 0
DWIDTH 20 0
BBX 18 21 1 0
BITMAP
1FFE00
3FFF00
70C380
E0C1C0
C0C0C0
C0C0C0
C0C0C0
C0C0C0
C0C0C0
C0C0C0
C0C0C0
C0C0C0
C0C0C0
C0C0C0
C0C0C0
C0C0C0
C0C0C0
C0C0C0
C0C0C0
C0C0C0
C0C0C0
ENDCHAR
STARTCHAR 004E
ENCODING 78
SWIDTH 419 0
DWIDTH 13 0
BBX 11 21 1 0
BITMAP
1F00
3F80
71C0
E0E0
C060
C060
C060
C060
C060
C060
C060
C060
C060
C060
C060
C060
C060
C060
C060
C060
C060
ENDCHAR
STARTCHAR 004F
ENCODING 79
SWIDTH 419 0
DWIDTH 13 0
BBX 11 21 1 0
BITMAP
1F00
3F80
71C0
E0E0
C060
C060
C060
C060
C060
C060
C060
C060
C060
C060
C060
C060
C060
E0E0
71C0
3F80
1F00
ENDCHAR
STARTCHAR 0050
ENCODING 80
SWIDTH 419 0
DWIDTH 13 0
BBX 11 21 1 0
BITMAP
7F00
FF80
C1C0
C0E0
C060
C060
C060
C060
C0E0
C1C0
7F80
FF00
C000
C000
C000
C000
C000
C000
C000
C000
C000
ENDCHAR
STARTCHAR 0051
ENCODING 81
SWIDTH 419 0
DWIDTH 13 0
BBX 11 21 1 0
BITMAP
1F00
3F80
71C0
E0E0
C060
C060
C060
C060
C060
C060
C060
C060
C060
C060
C060
CC60
CC60
CC60
4CC0
6DC0
1F00
ENDCHAR
STARTCHAR 0052
ENCODING 82
SWIDTH 419 0
DWIDTH 13 0
BBX 11 21 1 0
BITMAP
7F00
FF80
C1C0
C0E0
C060
C060
C060
C060
C0C0
C1C0
7F00
FFC0
C1C0
C0E0
C060
C060
C060
C060
C060
C060
C060
ENDCHAR
STARTCHAR 0053
ENCODING 83
SWIDTH 419 0
DWIDTH 13 0
BBX 11 21 1 0
BITMAP
1F00
3F80
71C0
E0C0
C060
C060
C060
C000
E000
7000
3F00
1F80
01C0
00E0
C060
C060
C060
60E0
71C0
3F80
1F00
ENDCHAR
STARTCHAR 0054
ENCODING 84
SWIDTH 419 0
DWIDTH 13 0
BBX 12 21 0 0
BITMAP
FFF0
FFF0
0600
0600
0600
0600
0600
0600
0600
0600
0600
0600
0600
0600
0600
0600
0600
0600
0600
0600
0600
ENDCHAR
STARTCHAR 0055
ENCODING 85
SWIDTH 419 0
DWIDTH 13 0
BBX 11 21 1 0
BITMAP
C060
C060
C060
C060
C060
C060
C060
C060
C060
C060
C060
C060
C060
C060
C060
C060
C060
E0E0
71C0
3F80
1F00
ENDCHAR
STARTCHAR 0056
ENCODING 86
SWIDTH 419 0
DWIDTH 13 0
BBX 11 21 1 0
BITMAP
C060
C060
C060
C060
C060
C060
C060
C060
C060
C060
C060
C060
C060
C060
C060
60C0
60C0
3180
1B00
0E00
0400
ENDCHAR
STARTCHAR 0057
ENCODING 87
SWIDTH 645 0
DWIDTH 20 0
BBX 18 21 1 0
BITMAP
C0C0C0
C0C0C0
C0C0C0
C0C0C0
C0C0C0
C0C0C0
C0C0C0
C0C0C0
C0C0C0
C0C0C0
C0C0C0
C0C0C0
C0C0C0
C0C0C0
C0C0C0
C0C0C0
C0C0C0
E0C1C0
70C380
3FFF00
1FFE00
ENDCHAR
STARTCHAR 0058
ENCODING 88
SWIDTH 419 0
DWIDTH 13 0
BBX 11 21 1 0
BITMAP
C060
C060
C060
C060
C060
C060
C060
C060
60C0
71C0
1F00
7FC0
71C0
E0E0
C060
C060
C060
C060
C060
C060
C060
ENDCHAR
STARTCHAR 0059
ENCODING 89
SWIDTH 419 0
DWIDTH 13 0
BBX 11 21 1 0
BITMAP
C060
C060
C060
C060
C060
C060
C060
C060
60C0
71C0
3F00
0C00
0C00
0C00
0C00
0C00
0C00
0C00
0C00
0C00
0C00
ENDCHAR
STARTCHAR 005A
ENCODING 90
SWIDTH 419 0
DWIDTH 13 0
BBX 11 21 1 0
BITMAP
FFC0
FFE0
0020
0060
0040
00C0
0180
0100
0300
0600
0400
0C00
1800
1000
3000
6000
4000
C000
8000
FFE0
7FE0
ENDCHAR
STARTCHAR 005B
ENCODING 91
SWIDTH 258 0
DWIDTH 8 0
BBX 7 21 1 0
BITMAP
7E
FE
C0
C0
C0
C0
C0
C0
C0
C0
C0
C0
C0
C0
C0
C0
C0
C0
C0
FE
7E
ENDCHAR
STARTCHAR 005C
ENCODING 92
SWIDTH 419 0
DWIDTH 13 0
BBX 11 21 1 0
BITMAP
8000
8000
C000
C000
6000
6000
3000
1000
1800
0C00
0C00
0600
0300
0300
0180
00C0
00C0
0060
0060
0060
0020
ENDCHAR
STARTCHAR 005D
ENCODING 93
SWIDTH 258 0
DWIDTH 8 0
BBX 7 21 0 0
BITMAP
FC
FE
06
06
06
06
06
06
06
06
06
06
06
06
06
06
06
06
06
FE
FC
ENDCHAR
STARTCHAR 005E
ENCODING 94
SWIDTH 419 0
DWIDTH 13 0
BBX 11 6 1 15
BITMAP
0400
1F00
7BC0
E0E0
C060
8020
ENDCHAR
STARTCHAR 005F
ENCODING 95
SWIDTH 419 0
DWIDTH 13 0
BBX 11 2 1 -5
BITMAP
FFE0
FFE0
ENDCHAR
STARTCHAR 0060
ENCODING 96
SWIDTH 96 0
DWIDTH 3 0
BBX 2 6 1 15
BITMAP
C0
C0
C0
C0
C0
C0
ENDCHAR
STARTCHAR 0061
ENCODING 97
SWIDTH 419 0
DWIDTH 13 0
BBX 12 11 0 0
BITMAP
07C0
07E0
0070
0030
7FF0
FFE0
C030
C030
6030
7FF0
3FE0
ENDCHAR
STARTCHAR 0062
ENCODING 98
SWIDTH 419 0
DWIDTH 13 0
BBX 11 21 1 0
BITMAP
C000
C000
C000
C000
C000
C000
C000
C000
C000
C000
7F00
FF80
C1C0
C0E0
C060
C060
C060
C060
C0C0
FF80
7F00
ENDCHAR
STARTCHAR 0063
ENCODING 99
SWIDTH 419 0
DWIDTH 13 0
BBX 12 11 1 0
BITMAP
0FF0
3FF0
7000
E000
C000
C000
C000
E000
7000
3FF0
0FF0
ENDCHAR
STARTCHAR 0064
ENCODING 100
SWIDTH 419 0
DWIDTH 13 0
BBX 11 21 1 0
BITMAP
0060
0060
0060
0060
0060
0060
0060
0060
0060
0060
1FC0
7FE0
7060
E060
C060
C060
C060
C060
7060
3FE0
1FC0
ENDCHAR
STARTCHAR 0065
ENCODING 101
SWIDTH 419 0
DWIDTH 13 0
BBX 11 11 1 0
BITMAP
3F80
7FC0
C0E0
C060
FFE0
7FC0
C000
C000
E000
7E00
3E00
ENDCHAR
STARTCHAR 0066
ENCODING 102
SWIDTH 419 0
DWIDTH 13 0
BBX 12 21 1 0
BITMAP
1FF0
3FF0
7000
E000
C000
C000
C000
C000
C000
C000
7E00
FE00
C000
C000
C000
C000
C000
C000
C000
C000
C000
ENDCHAR
STARTCHAR 0067
ENCODING 103
SWIDTH 419 0
DWIDTH 13 0
BBX 11 16 1 -5
BITMAP
1FC0
3FE0
7060
E060
C060
C060
C060
C060
7060
7FE0
1FC0
0060
0060
00E0
0FC0
0F80
ENDCHAR
STARTCHAR 0068
ENCODING 104
SWIDTH 419 0
DWIDTH 13 0
BBX 11 21 1 0
BITMAP
C000
C000
C000
C000
C000
C000
C000
C000
C000
C000
7F00
FF80
C1C0
C0E0
C060
C060
C060
C060
C060
C060
C060
ENDCHAR
STARTCHAR 0069
ENCODING 105
SWIDTH 96 0
DWIDTH 3 0
BBX 2 16 1 0
BITMAP
C0
00
00
00
00
C0
C0
C0
C0
C0
C0
C0
C0
C0
C0
C0
ENDCHAR
STARTCHAR 006A
ENCODING 106
SWIDTH 258 0
DWIDTH 8 0
BBX 7 21 0 -5
BITMAP
06
00
00
00
00
06
06
06
06
06
06
06
06
06
06
06
06
0E
1C
F8
E0
ENDCHAR
STARTCHAR 006B
ENCODING 107
SWIDTH 419 0
DWIDTH 13 0
BBX 11 21 1 0
BITMAP
C000
C000
C000
C000
C000
C060
C060
C060
C0C0
C1C0
7F80
FF80
C1C0
C0E0
C060
C060
C060
C060
C060
C060
C060
ENDCHAR
STARTCHAR 006C
ENCODING 108
SWIDTH 96 0
DWIDTH 3 0
BBX 2 21 1 0
BITMAP
C0
C0
C0
C0
C0
C0
C0
C0
C0
C0
C0
C0
C0
C0
C0
C0
C0
C0
C0
C0
C0
ENDCHAR
STARTCHAR 006D
ENCODING 109
SWIDTH 645 0
DWIDTH 20 0
BBX 18 11 1 0
BITMAP
1FFE00
3FFF00
70C380
E0C1C0
C0C0C0
C0C0C0
C0C0C0
C0C0C0
C0C0C0
C0C0C0
C0C0C0
ENDCHAR
STARTCHAR 006E
ENCODING 110
SWIDTH 419 0
DWIDTH 13 0
BBX 11 11 1 0
BITMAP
1F00
3F80
71C0
E0E0
C060
C060
C060
C060
C060
C060
C060
ENDCHAR
STARTCHAR 006F
ENCODING 111
SWIDTH 419 0
DWIDTH 13 0
BBX 11 11 1 0
BITMAP
1F00
3F80
71C0
E0E0
C060
C060
C060
E0E0
61C0
3F80
1F00
ENDCHAR
STARTCHAR 0070
ENCODING 112
SWIDTH 419 0
DWIDTH 13 0
BBX 11 16 1 -5
BITMAP
7F00
FF80
C1C0
C0E0
C060
C060
C060
C060
C0C0
FFC0
7F00
C000
C000
C000
C000
C000
ENDCHAR
STARTCHAR 0071
ENCODING 113
SWIDTH 419 0
DWIDTH 13 0
BBX 11 16 1 -5
BITMAP
1FC0
3FE0
7060
E060
C060
C060
C060
C060
7060
7FE0
1FC0
0060
0060
0060
0060
0060
ENDCHAR
STARTCHAR 0072
ENCODING 114
SWIDTH 419 0
DWIDTH 13 0
BBX 12 11 1 0
BITMAP
1FF0
3FF0
7000
E000
C000
C000
C000
C000
C000
C000
C000
ENDCHAR
STARTCHAR 0073
ENCODING 115
SWIDTH 419 0
DWIDTH 13 0
BBX 12 11 0 0
BITMAP
3FF0
7FF0
E000
C000
FFE0
7FF0
0030
0030
0070
FFE0
FFC0
ENDCHAR
STARTCHAR 0074
ENCODING 116
SWIDTH 419 0
DWIDTH 13 0
BBX 12 16 0 0
BITMAP
0600
0600
0600
0600
0600
FFF0
FFF0
0600
0600
0600
0600
0600
0600
0600
0600
0600
ENDCHAR
STARTCHAR 0075
ENCODING 117
SWIDTH 419 0
DWIDTH 13 0
BBX 11 11 1 0
BITMAP
C060
C060
C060
C060
C060
C060
C060
E0E0
71C0
3F80
1F00
ENDCHAR
STARTCHAR 0076
ENCODING 118
SWIDTH 419 0
DWIDTH 13 0
BBX 11 11 1 0
BITMAP
C060
C060
C060
C060
C060
60C0
60C0
3180
1B00
0E00
0400
ENDCHAR
STARTCHAR 0077
ENCODING 119
SWIDTH 645 0
DWIDTH 20 0
BBX 18 11 1 0
BITMAP
C0C0C0
C0C0C0
C0C0C0
C0C0C0
C0C0C0
C0C0C0
C0C0C0
E0C1C0
70C380
3FFF00
1FFE00
ENDCHAR
STARTCHAR 0078
ENCODING 120
SWIDTH 419 0
DWIDTH 13 0
BBX 11 11 1 0
BITMAP
C060
C060
E060
71C0
7FC0
1F00
71C0
60C0
C060
C060
C060
ENDCHAR
STARTCHAR 0079
ENCODING 121
SWIDTH 419 0
DWIDTH 13 0
BBX 11 16 1 -5
BITMAP
C060
C060
C060
C060
C060
C060
C060
E060
7060
7FE0
1FC0
0060
0060
00E0
0FC0
0F80
ENDCHAR
STARTCHAR 007A
ENCODING 122
SWIDTH 419 0
DWIDTH 13 0
BBX 11 11 1 0
BITMAP
FFC0
FFE0
0020
00C0
0380
0E00
3800
6000
8000
FFE0
7FE0
ENDCHAR
STARTCHAR 007B
ENCODING 123
SWIDTH 322 0
DWIDTH 10 0
BBX 9 21 0 0
BITMAP
0380
0F80
1C00
3800
3000
3000
3000
3000
3000
3000
E000
7000
3000
3000
3000
3000
3000
3800
1C00
0F80
0380
ENDCHAR
STARTCHAR 007C
ENCODING 124
SWIDTH 96 0
DWIDTH 3 0
BBX 2 31 1 -5
BITMAP
C0
C0
C0
C0
C0
C0
C0
C0
C0
C0
C0
C0
C0
C0
C0
C0
C0
C0
C0
C0
C0
C0
C0
C0
C0
C0
C0
C0
C0
C0
C0
ENDCHAR
STARTCHAR 007D
ENCODING 125
SWIDTH 322 0
DWIDTH 10 0
BBX 8 21 0 0
BITMAP
70
78
1C
04
06
06
06
06
06
06
03
07
06
06
06
06
06
0E
1C
F8
E0
ENDCHAR
STARTCHAR 007E
ENCODING 126
SWIDTH 419 0
DWIDTH 13 0
BBX 12 5 0 8
BITMAP
3C30
7E30
6670
C7E0
C3C0
ENDCHAR
STARTCHAR 00C6
ENCODING 198
SWIDTH 645 0
DWIDTH 20 0
BBX 18 21 1 0
BITMAP
1FFFC0
3FFFC0
70C000
E0C000
C0C000
C0C000
C0C000
C0C000
C0C000
C0C000
7FFE00
FFFE00
C0C000
C0C000
C0C000
C0C000
C0C000
C0C000
C0C000
C0FFC0
C07FC0
ENDCHAR
STARTCHAR 00E6
ENCODING 230
SWIDTH 645 0
DWIDTH 20 0
BBX 18 11 1 0
BITMAP
1F3F00
1FFF80
01C1C0
00C0C0
7FFFC0
FFFF80
C0C000
C0C000
C0E000
7FFE00
3FBE00
ENDCHAR
STARTCHAR E000
ENCODING 57344
SWIDTH 0 0
DWIDTH 0 0
BBX 0 0 0 0
BITMAP
ENDCHAR
STARTCHAR E001
ENCODING 57345
SWIDTH 516 0
DWIDTH 16 0
BBX 0 0 0 0
BITMAP
ENDCHAR
ENDFONT
